<?xml version="1.0" standalone="no"?>
<!DOCTYPE svg PUBLIC "-//W3C//DTD SVG 20010904//EN"
 "http://www.w3.org/TR/2001/REC-SVG-20010904/DTD/svg10.dtd">
<svg version="1.0" xmlns="http://www.w3.org/2000/svg"
 width="96.000000pt" height="96.000000pt" viewBox="0 0 96.000000 96.000000"
 preserveAspectRatio="xMidYMid meet">

<g transform="translate(0.000000,96.000000) scale(0.100000,-0.100000)"
fill="#FF0000" stroke="none">
<path d="M326 925 c-195 -69 -317 -237 -317 -440 0 -143 47 -252 151 -349 98
-90 189 -126 320 -126 133 0 235 42 332 137 96 94 138 194 138 328 0 151 -53
269 -164 365 -122 106 -306 140 -460 85z m453 -194 c-11 -64 -14 -71 -36 -71
-20 0 -23 5 -23 34 0 33 -1 34 -51 41 -28 4 -74 4 -103 1 l-51 -7 -26 -99 -25
-100 74 0 c65 0 74 2 79 20 4 14 14 20 33 20 l28 0 -14 -72 c-8 -40 -14 -76
-14 -80 0 -5 -11 -8 -25 -8 -21 0 -25 5 -25 30 l0 30 -75 0 -74 0 -22 -72
c-11 -40 -31 -95 -44 -123 l-22 -51 53 4 c30 2 97 -3 149 -13 111 -20 127 -15
118 41 -7 40 9 64 43 64 51 0 60 -82 13 -129 -49 -49 -88 -56 -245 -42 -82 8
-175 10 -232 6 -87 -7 -95 -6 -89 10 4 9 7 20 7 24 0 4 18 13 41 20 34 10 44
20 59 54 19 43 130 441 130 465 0 28 -101 -12 -146 -56 -31 -31 -63 -97 -64
-130 0 -13 10 -45 21 -73 25 -57 16 -79 -33 -79 -24 0 -32 6 -44 35 -51 122
38 292 179 344 49 18 81 21 205 22 81 1 172 4 202 8 30 4 57 6 59 4 1 -1 -3
-34 -10 -72z"/>
</g>
</svg>